# xmcd CD database file
# Copyright (C) 1995 Ti Kan
#
# Track frame offsets:
#       200
#       18350
#       49700
#       67925
#
# Disc length: 1188 seconds
#
# Revision: 1
# Processed by: cddbd v1.4b41PL1 Copyright (c) Steve Scherf et al.
# Submitted via: xmcd 1.4
#
DISCID=2804a204
DTITLE=The Basement Blues Band
DYEAR=1900
DGENRE=
TTITLE0=Consequences
TTITLE1=The Cradle Is Robbin' Me
TTITLE2=The Last Time
TTITLE3=Fuss and Fight
EXTD=Recorded May 14 and 25, 1993 in Duesseldorf, Germany.\nRecorded a
EXTD=nd mixed by Katharina Kirchhoff-Stewens and Christian Hartig.\nDi
EXTD=gitally mastered by Digital Audio Team, Ansgar Ballhorn in Odent
EXTD=hal\nManufactured by WIZARD RECORDS in Schwerte.\nCover Design by
EXTD=Manuela Schwerte.\n\nInfo:\nHeinz W. Huber\nRosenweg 51\nD-58239
EXTD=erte\nPhone: +49-2304-81963
EXTT0=
EXTT1=
EXTT2=
EXTT3=
PLAYORDER=
